<mxfile host="app.diagrams.net" agent="Mozilla/5.0 (Windows NT 10.0; Win64; x64) AppleWebKit/537.36 (KHTML, like Gecko) Chrome/130.0.0.0 Safari/537.36 Edg/130.0.0.0" version="24.8.4" pages="2">
  <diagram name="ERD" id="q18Ne8W4Igp55V1KBwA7">
    <mxGraphModel dx="1002" dy="570" grid="1" gridSize="10" guides="1" tooltips="1" connect="1" arrows="1" fold="1" page="1" pageScale="1" pageWidth="1169" pageHeight="827" math="0" shadow="0">
      <root>
        <mxCell id="0" />
        <mxCell id="1" parent="0" />
        <mxCell id="y91bG53S7mBWrwrXbrra-1" value="users" style="shape=table;startSize=30;container=1;collapsible=1;childLayout=tableLayout;fixedRows=1;rowLines=0;fontStyle=1;align=center;resizeLast=1;html=1;" vertex="1" parent="1">
          <mxGeometry x="270" y="220" width="180" height="150" as="geometry" />
        </mxCell>
        <mxCell id="y91bG53S7mBWrwrXbrra-2" value="" style="shape=tableRow;horizontal=0;startSize=0;swimlaneHead=0;swimlaneBody=0;fillColor=none;collapsible=0;dropTarget=0;points=[[0,0.5],[1,0.5]];portConstraint=eastwest;top=0;left=0;right=0;bottom=1;" vertex="1" parent="y91bG53S7mBWrwrXbrra-1">
          <mxGeometry y="30" width="180" height="30" as="geometry" />
        </mxCell>
        <mxCell id="y91bG53S7mBWrwrXbrra-3" value="PK" style="shape=partialRectangle;connectable=0;fillColor=none;top=0;left=0;bottom=0;right=0;fontStyle=1;overflow=hidden;whiteSpace=wrap;html=1;" vertex="1" parent="y91bG53S7mBWrwrXbrra-2">
          <mxGeometry width="30" height="30" as="geometry">
            <mxRectangle width="30" height="30" as="alternateBounds" />
          </mxGeometry>
        </mxCell>
        <mxCell id="y91bG53S7mBWrwrXbrra-4" value="user_id: uuid" style="shape=partialRectangle;connectable=0;fillColor=none;top=0;left=0;bottom=0;right=0;align=left;spacingLeft=6;fontStyle=5;overflow=hidden;whiteSpace=wrap;html=1;" vertex="1" parent="y91bG53S7mBWrwrXbrra-2">
          <mxGeometry x="30" width="150" height="30" as="geometry">
            <mxRectangle width="150" height="30" as="alternateBounds" />
          </mxGeometry>
        </mxCell>
        <mxCell id="y91bG53S7mBWrwrXbrra-5" value="" style="shape=tableRow;horizontal=0;startSize=0;swimlaneHead=0;swimlaneBody=0;fillColor=none;collapsible=0;dropTarget=0;points=[[0,0.5],[1,0.5]];portConstraint=eastwest;top=0;left=0;right=0;bottom=0;" vertex="1" parent="y91bG53S7mBWrwrXbrra-1">
          <mxGeometry y="60" width="180" height="30" as="geometry" />
        </mxCell>
        <mxCell id="y91bG53S7mBWrwrXbrra-6" value="" style="shape=partialRectangle;connectable=0;fillColor=none;top=0;left=0;bottom=0;right=0;editable=1;overflow=hidden;whiteSpace=wrap;html=1;" vertex="1" parent="y91bG53S7mBWrwrXbrra-5">
          <mxGeometry width="30" height="30" as="geometry">
            <mxRectangle width="30" height="30" as="alternateBounds" />
          </mxGeometry>
        </mxCell>
        <mxCell id="y91bG53S7mBWrwrXbrra-7" value="username: string" style="shape=partialRectangle;connectable=0;fillColor=none;top=0;left=0;bottom=0;right=0;align=left;spacingLeft=6;overflow=hidden;whiteSpace=wrap;html=1;" vertex="1" parent="y91bG53S7mBWrwrXbrra-5">
          <mxGeometry x="30" width="150" height="30" as="geometry">
            <mxRectangle width="150" height="30" as="alternateBounds" />
          </mxGeometry>
        </mxCell>
        <mxCell id="y91bG53S7mBWrwrXbrra-8" value="" style="shape=tableRow;horizontal=0;startSize=0;swimlaneHead=0;swimlaneBody=0;fillColor=none;collapsible=0;dropTarget=0;points=[[0,0.5],[1,0.5]];portConstraint=eastwest;top=0;left=0;right=0;bottom=0;" vertex="1" parent="y91bG53S7mBWrwrXbrra-1">
          <mxGeometry y="90" width="180" height="30" as="geometry" />
        </mxCell>
        <mxCell id="y91bG53S7mBWrwrXbrra-9" value="" style="shape=partialRectangle;connectable=0;fillColor=none;top=0;left=0;bottom=0;right=0;editable=1;overflow=hidden;whiteSpace=wrap;html=1;" vertex="1" parent="y91bG53S7mBWrwrXbrra-8">
          <mxGeometry width="30" height="30" as="geometry">
            <mxRectangle width="30" height="30" as="alternateBounds" />
          </mxGeometry>
        </mxCell>
        <mxCell id="y91bG53S7mBWrwrXbrra-10" value="name: string" style="shape=partialRectangle;connectable=0;fillColor=none;top=0;left=0;bottom=0;right=0;align=left;spacingLeft=6;overflow=hidden;whiteSpace=wrap;html=1;" vertex="1" parent="y91bG53S7mBWrwrXbrra-8">
          <mxGeometry x="30" width="150" height="30" as="geometry">
            <mxRectangle width="150" height="30" as="alternateBounds" />
          </mxGeometry>
        </mxCell>
        <mxCell id="y91bG53S7mBWrwrXbrra-11" value="" style="shape=tableRow;horizontal=0;startSize=0;swimlaneHead=0;swimlaneBody=0;fillColor=none;collapsible=0;dropTarget=0;points=[[0,0.5],[1,0.5]];portConstraint=eastwest;top=0;left=0;right=0;bottom=0;" vertex="1" parent="y91bG53S7mBWrwrXbrra-1">
          <mxGeometry y="120" width="180" height="30" as="geometry" />
        </mxCell>
        <mxCell id="y91bG53S7mBWrwrXbrra-12" value="" style="shape=partialRectangle;connectable=0;fillColor=none;top=0;left=0;bottom=0;right=0;editable=1;overflow=hidden;whiteSpace=wrap;html=1;" vertex="1" parent="y91bG53S7mBWrwrXbrra-11">
          <mxGeometry width="30" height="30" as="geometry">
            <mxRectangle width="30" height="30" as="alternateBounds" />
          </mxGeometry>
        </mxCell>
        <mxCell id="y91bG53S7mBWrwrXbrra-13" value="password: string" style="shape=partialRectangle;connectable=0;fillColor=none;top=0;left=0;bottom=0;right=0;align=left;spacingLeft=6;overflow=hidden;whiteSpace=wrap;html=1;" vertex="1" parent="y91bG53S7mBWrwrXbrra-11">
          <mxGeometry x="30" width="150" height="30" as="geometry">
            <mxRectangle width="150" height="30" as="alternateBounds" />
          </mxGeometry>
        </mxCell>
        <mxCell id="y91bG53S7mBWrwrXbrra-14" value="ocr_predictions" style="shape=table;startSize=30;container=1;collapsible=1;childLayout=tableLayout;fixedRows=1;rowLines=0;fontStyle=1;align=center;resizeLast=1;html=1;" vertex="1" parent="1">
          <mxGeometry x="540" y="70" width="180" height="150" as="geometry" />
        </mxCell>
        <mxCell id="y91bG53S7mBWrwrXbrra-15" value="" style="shape=tableRow;horizontal=0;startSize=0;swimlaneHead=0;swimlaneBody=0;fillColor=none;collapsible=0;dropTarget=0;points=[[0,0.5],[1,0.5]];portConstraint=eastwest;top=0;left=0;right=0;bottom=1;" vertex="1" parent="y91bG53S7mBWrwrXbrra-14">
          <mxGeometry y="30" width="180" height="30" as="geometry" />
        </mxCell>
        <mxCell id="y91bG53S7mBWrwrXbrra-16" value="PK" style="shape=partialRectangle;connectable=0;fillColor=none;top=0;left=0;bottom=0;right=0;fontStyle=1;overflow=hidden;whiteSpace=wrap;html=1;" vertex="1" parent="y91bG53S7mBWrwrXbrra-15">
          <mxGeometry width="30" height="30" as="geometry">
            <mxRectangle width="30" height="30" as="alternateBounds" />
          </mxGeometry>
        </mxCell>
        <mxCell id="y91bG53S7mBWrwrXbrra-17" value="ocr_id: uuid" style="shape=partialRectangle;connectable=0;fillColor=none;top=0;left=0;bottom=0;right=0;align=left;spacingLeft=6;fontStyle=5;overflow=hidden;whiteSpace=wrap;html=1;" vertex="1" parent="y91bG53S7mBWrwrXbrra-15">
          <mxGeometry x="30" width="150" height="30" as="geometry">
            <mxRectangle width="150" height="30" as="alternateBounds" />
          </mxGeometry>
        </mxCell>
        <mxCell id="y91bG53S7mBWrwrXbrra-18" value="" style="shape=tableRow;horizontal=0;startSize=0;swimlaneHead=0;swimlaneBody=0;fillColor=none;collapsible=0;dropTarget=0;points=[[0,0.5],[1,0.5]];portConstraint=eastwest;top=0;left=0;right=0;bottom=0;" vertex="1" parent="y91bG53S7mBWrwrXbrra-14">
          <mxGeometry y="60" width="180" height="30" as="geometry" />
        </mxCell>
        <mxCell id="y91bG53S7mBWrwrXbrra-19" value="" style="shape=partialRectangle;connectable=0;fillColor=none;top=0;left=0;bottom=0;right=0;editable=1;overflow=hidden;whiteSpace=wrap;html=1;" vertex="1" parent="y91bG53S7mBWrwrXbrra-18">
          <mxGeometry width="30" height="30" as="geometry">
            <mxRectangle width="30" height="30" as="alternateBounds" />
          </mxGeometry>
        </mxCell>
        <mxCell id="y91bG53S7mBWrwrXbrra-20" value="timestamp: timestamp" style="shape=partialRectangle;connectable=0;fillColor=none;top=0;left=0;bottom=0;right=0;align=left;spacingLeft=6;overflow=hidden;whiteSpace=wrap;html=1;" vertex="1" parent="y91bG53S7mBWrwrXbrra-18">
          <mxGeometry x="30" width="150" height="30" as="geometry">
            <mxRectangle width="150" height="30" as="alternateBounds" />
          </mxGeometry>
        </mxCell>
        <mxCell id="y91bG53S7mBWrwrXbrra-21" value="" style="shape=tableRow;horizontal=0;startSize=0;swimlaneHead=0;swimlaneBody=0;fillColor=none;collapsible=0;dropTarget=0;points=[[0,0.5],[1,0.5]];portConstraint=eastwest;top=0;left=0;right=0;bottom=0;" vertex="1" parent="y91bG53S7mBWrwrXbrra-14">
          <mxGeometry y="90" width="180" height="30" as="geometry" />
        </mxCell>
        <mxCell id="y91bG53S7mBWrwrXbrra-22" value="" style="shape=partialRectangle;connectable=0;fillColor=none;top=0;left=0;bottom=0;right=0;editable=1;overflow=hidden;whiteSpace=wrap;html=1;" vertex="1" parent="y91bG53S7mBWrwrXbrra-21">
          <mxGeometry width="30" height="30" as="geometry">
            <mxRectangle width="30" height="30" as="alternateBounds" />
          </mxGeometry>
        </mxCell>
        <mxCell id="y91bG53S7mBWrwrXbrra-23" value="image_path: string" style="shape=partialRectangle;connectable=0;fillColor=none;top=0;left=0;bottom=0;right=0;align=left;spacingLeft=6;overflow=hidden;whiteSpace=wrap;html=1;" vertex="1" parent="y91bG53S7mBWrwrXbrra-21">
          <mxGeometry x="30" width="150" height="30" as="geometry">
            <mxRectangle width="150" height="30" as="alternateBounds" />
          </mxGeometry>
        </mxCell>
        <mxCell id="y91bG53S7mBWrwrXbrra-24" value="" style="shape=tableRow;horizontal=0;startSize=0;swimlaneHead=0;swimlaneBody=0;fillColor=none;collapsible=0;dropTarget=0;points=[[0,0.5],[1,0.5]];portConstraint=eastwest;top=0;left=0;right=0;bottom=0;" vertex="1" parent="y91bG53S7mBWrwrXbrra-14">
          <mxGeometry y="120" width="180" height="30" as="geometry" />
        </mxCell>
        <mxCell id="y91bG53S7mBWrwrXbrra-25" value="FK" style="shape=partialRectangle;connectable=0;fillColor=none;top=0;left=0;bottom=0;right=0;editable=1;overflow=hidden;whiteSpace=wrap;html=1;" vertex="1" parent="y91bG53S7mBWrwrXbrra-24">
          <mxGeometry width="30" height="30" as="geometry">
            <mxRectangle width="30" height="30" as="alternateBounds" />
          </mxGeometry>
        </mxCell>
        <mxCell id="y91bG53S7mBWrwrXbrra-26" value="user_id: uuid" style="shape=partialRectangle;connectable=0;fillColor=none;top=0;left=0;bottom=0;right=0;align=left;spacingLeft=6;overflow=hidden;whiteSpace=wrap;html=1;" vertex="1" parent="y91bG53S7mBWrwrXbrra-24">
          <mxGeometry x="30" width="150" height="30" as="geometry">
            <mxRectangle width="150" height="30" as="alternateBounds" />
          </mxGeometry>
        </mxCell>
        <mxCell id="y91bG53S7mBWrwrXbrra-27" value="ocr_details" style="shape=table;startSize=30;container=1;collapsible=1;childLayout=tableLayout;fixedRows=1;rowLines=0;fontStyle=1;align=center;resizeLast=1;html=1;" vertex="1" parent="1">
          <mxGeometry x="820" y="220" width="180" height="180" as="geometry" />
        </mxCell>
        <mxCell id="y91bG53S7mBWrwrXbrra-28" value="" style="shape=tableRow;horizontal=0;startSize=0;swimlaneHead=0;swimlaneBody=0;fillColor=none;collapsible=0;dropTarget=0;points=[[0,0.5],[1,0.5]];portConstraint=eastwest;top=0;left=0;right=0;bottom=1;" vertex="1" parent="y91bG53S7mBWrwrXbrra-27">
          <mxGeometry y="30" width="180" height="30" as="geometry" />
        </mxCell>
        <mxCell id="y91bG53S7mBWrwrXbrra-29" value="PK" style="shape=partialRectangle;connectable=0;fillColor=none;top=0;left=0;bottom=0;right=0;fontStyle=1;overflow=hidden;whiteSpace=wrap;html=1;" vertex="1" parent="y91bG53S7mBWrwrXbrra-28">
          <mxGeometry width="30" height="30" as="geometry">
            <mxRectangle width="30" height="30" as="alternateBounds" />
          </mxGeometry>
        </mxCell>
        <mxCell id="y91bG53S7mBWrwrXbrra-30" value="detail_id: uuid" style="shape=partialRectangle;connectable=0;fillColor=none;top=0;left=0;bottom=0;right=0;align=left;spacingLeft=6;fontStyle=5;overflow=hidden;whiteSpace=wrap;html=1;" vertex="1" parent="y91bG53S7mBWrwrXbrra-28">
          <mxGeometry x="30" width="150" height="30" as="geometry">
            <mxRectangle width="150" height="30" as="alternateBounds" />
          </mxGeometry>
        </mxCell>
        <mxCell id="y91bG53S7mBWrwrXbrra-31" value="" style="shape=tableRow;horizontal=0;startSize=0;swimlaneHead=0;swimlaneBody=0;fillColor=none;collapsible=0;dropTarget=0;points=[[0,0.5],[1,0.5]];portConstraint=eastwest;top=0;left=0;right=0;bottom=0;" vertex="1" parent="y91bG53S7mBWrwrXbrra-27">
          <mxGeometry y="60" width="180" height="30" as="geometry" />
        </mxCell>
        <mxCell id="y91bG53S7mBWrwrXbrra-32" value="" style="shape=partialRectangle;connectable=0;fillColor=none;top=0;left=0;bottom=0;right=0;editable=1;overflow=hidden;whiteSpace=wrap;html=1;" vertex="1" parent="y91bG53S7mBWrwrXbrra-31">
          <mxGeometry width="30" height="30" as="geometry">
            <mxRectangle width="30" height="30" as="alternateBounds" />
          </mxGeometry>
        </mxCell>
        <mxCell id="y91bG53S7mBWrwrXbrra-33" value="prediction: char" style="shape=partialRectangle;connectable=0;fillColor=none;top=0;left=0;bottom=0;right=0;align=left;spacingLeft=6;overflow=hidden;whiteSpace=wrap;html=1;" vertex="1" parent="y91bG53S7mBWrwrXbrra-31">
          <mxGeometry x="30" width="150" height="30" as="geometry">
            <mxRectangle width="150" height="30" as="alternateBounds" />
          </mxGeometry>
        </mxCell>
        <mxCell id="y91bG53S7mBWrwrXbrra-34" value="" style="shape=tableRow;horizontal=0;startSize=0;swimlaneHead=0;swimlaneBody=0;fillColor=none;collapsible=0;dropTarget=0;points=[[0,0.5],[1,0.5]];portConstraint=eastwest;top=0;left=0;right=0;bottom=0;" vertex="1" parent="y91bG53S7mBWrwrXbrra-27">
          <mxGeometry y="90" width="180" height="30" as="geometry" />
        </mxCell>
        <mxCell id="y91bG53S7mBWrwrXbrra-35" value="" style="shape=partialRectangle;connectable=0;fillColor=none;top=0;left=0;bottom=0;right=0;editable=1;overflow=hidden;whiteSpace=wrap;html=1;" vertex="1" parent="y91bG53S7mBWrwrXbrra-34">
          <mxGeometry width="30" height="30" as="geometry">
            <mxRectangle width="30" height="30" as="alternateBounds" />
          </mxGeometry>
        </mxCell>
        <mxCell id="y91bG53S7mBWrwrXbrra-36" value="probability: double" style="shape=partialRectangle;connectable=0;fillColor=none;top=0;left=0;bottom=0;right=0;align=left;spacingLeft=6;overflow=hidden;whiteSpace=wrap;html=1;" vertex="1" parent="y91bG53S7mBWrwrXbrra-34">
          <mxGeometry x="30" width="150" height="30" as="geometry">
            <mxRectangle width="150" height="30" as="alternateBounds" />
          </mxGeometry>
        </mxCell>
        <mxCell id="y91bG53S7mBWrwrXbrra-37" value="" style="shape=tableRow;horizontal=0;startSize=0;swimlaneHead=0;swimlaneBody=0;fillColor=none;collapsible=0;dropTarget=0;points=[[0,0.5],[1,0.5]];portConstraint=eastwest;top=0;left=0;right=0;bottom=0;" vertex="1" parent="y91bG53S7mBWrwrXbrra-27">
          <mxGeometry y="120" width="180" height="30" as="geometry" />
        </mxCell>
        <mxCell id="y91bG53S7mBWrwrXbrra-38" value="" style="shape=partialRectangle;connectable=0;fillColor=none;top=0;left=0;bottom=0;right=0;editable=1;overflow=hidden;whiteSpace=wrap;html=1;" vertex="1" parent="y91bG53S7mBWrwrXbrra-37">
          <mxGeometry width="30" height="30" as="geometry">
            <mxRectangle width="30" height="30" as="alternateBounds" />
          </mxGeometry>
        </mxCell>
        <mxCell id="y91bG53S7mBWrwrXbrra-39" value="actual: char" style="shape=partialRectangle;connectable=0;fillColor=none;top=0;left=0;bottom=0;right=0;align=left;spacingLeft=6;overflow=hidden;whiteSpace=wrap;html=1;" vertex="1" parent="y91bG53S7mBWrwrXbrra-37">
          <mxGeometry x="30" width="150" height="30" as="geometry">
            <mxRectangle width="150" height="30" as="alternateBounds" />
          </mxGeometry>
        </mxCell>
        <mxCell id="y91bG53S7mBWrwrXbrra-40" value="" style="shape=tableRow;horizontal=0;startSize=0;swimlaneHead=0;swimlaneBody=0;fillColor=none;collapsible=0;dropTarget=0;points=[[0,0.5],[1,0.5]];portConstraint=eastwest;top=0;left=0;right=0;bottom=0;" vertex="1" parent="y91bG53S7mBWrwrXbrra-27">
          <mxGeometry y="150" width="180" height="30" as="geometry" />
        </mxCell>
        <mxCell id="y91bG53S7mBWrwrXbrra-41" value="FK" style="shape=partialRectangle;connectable=0;fillColor=none;top=0;left=0;bottom=0;right=0;editable=1;overflow=hidden;whiteSpace=wrap;html=1;" vertex="1" parent="y91bG53S7mBWrwrXbrra-40">
          <mxGeometry width="30" height="30" as="geometry">
            <mxRectangle width="30" height="30" as="alternateBounds" />
          </mxGeometry>
        </mxCell>
        <mxCell id="y91bG53S7mBWrwrXbrra-42" value="ocr_id: uuid" style="shape=partialRectangle;connectable=0;fillColor=none;top=0;left=0;bottom=0;right=0;align=left;spacingLeft=6;overflow=hidden;whiteSpace=wrap;html=1;" vertex="1" parent="y91bG53S7mBWrwrXbrra-40">
          <mxGeometry x="30" width="150" height="30" as="geometry">
            <mxRectangle width="150" height="30" as="alternateBounds" />
          </mxGeometry>
        </mxCell>
        <mxCell id="y91bG53S7mBWrwrXbrra-43" value="" style="edgeStyle=entityRelationEdgeStyle;fontSize=12;html=1;endArrow=ERoneToMany;rounded=0;exitX=1;exitY=0.5;exitDx=0;exitDy=0;entryX=0;entryY=0.5;entryDx=0;entryDy=0;" edge="1" parent="1" source="y91bG53S7mBWrwrXbrra-2" target="y91bG53S7mBWrwrXbrra-24">
          <mxGeometry width="100" height="100" relative="1" as="geometry">
            <mxPoint x="450" y="350" as="sourcePoint" />
            <mxPoint x="550" y="250" as="targetPoint" />
          </mxGeometry>
        </mxCell>
        <mxCell id="y91bG53S7mBWrwrXbrra-44" value="" style="edgeStyle=entityRelationEdgeStyle;fontSize=12;html=1;endArrow=ERoneToMany;rounded=0;exitX=1;exitY=0.5;exitDx=0;exitDy=0;entryX=0;entryY=0.5;entryDx=0;entryDy=0;" edge="1" parent="1" source="y91bG53S7mBWrwrXbrra-15" target="y91bG53S7mBWrwrXbrra-40">
          <mxGeometry width="100" height="100" relative="1" as="geometry">
            <mxPoint x="600" y="350" as="sourcePoint" />
            <mxPoint x="700" y="250" as="targetPoint" />
          </mxGeometry>
        </mxCell>
      </root>
    </mxGraphModel>
  </diagram>
  <diagram id="E3HsUDvtS6Ijoe57JV1r" name="Cloud Architecture">
    <mxGraphModel dx="1431" dy="814" grid="1" gridSize="10" guides="1" tooltips="1" connect="1" arrows="1" fold="1" page="1" pageScale="1" pageWidth="1169" pageHeight="827" math="0" shadow="0">
      <root>
        <mxCell id="0" />
        <mxCell id="1" parent="0" />
        <mxCell id="ukLfoLGlfBXaizz4c1XY-24" value="&lt;b&gt;Google &lt;/b&gt;Cloud Platform" style="fillColor=#F6F6F6;strokeColor=none;shadow=0;gradientColor=none;fontSize=14;align=left;spacing=10;fontColor=#717171;9E9E9E;verticalAlign=top;spacingTop=-4;fontStyle=0;spacingLeft=40;html=1;whiteSpace=wrap;" vertex="1" parent="1">
          <mxGeometry x="300" y="90" width="800" height="440" as="geometry" />
        </mxCell>
        <mxCell id="ukLfoLGlfBXaizz4c1XY-25" value="" style="shape=mxgraph.gcp2.google_cloud_platform;fillColor=#F6F6F6;strokeColor=none;shadow=0;gradientColor=none;" vertex="1" parent="ukLfoLGlfBXaizz4c1XY-24">
          <mxGeometry width="23" height="20" relative="1" as="geometry">
            <mxPoint x="20" y="10" as="offset" />
          </mxGeometry>
        </mxCell>
        <mxCell id="ukLfoLGlfBXaizz4c1XY-26" value="Project: ocrfix" style="text;html=1;align=center;verticalAlign=middle;whiteSpace=wrap;rounded=0;fontColor=#717171;" vertex="1" parent="ukLfoLGlfBXaizz4c1XY-24">
          <mxGeometry x="50" y="19.999999999999996" width="80" height="30" as="geometry" />
        </mxCell>
        <mxCell id="ukLfoLGlfBXaizz4c1XY-4" value="Global" style="sketch=0;points=[[0,0,0],[0.25,0,0],[0.5,0,0],[0.75,0,0],[1,0,0],[1,0.25,0],[1,0.5,0],[1,0.75,0],[1,1,0],[0.75,1,0],[0.5,1,0],[0.25,1,0],[0,1,0],[0,0.75,0],[0,0.5,0],[0,0.25,0]];rounded=1;absoluteArcSize=1;arcSize=2;html=1;strokeColor=none;gradientColor=none;shadow=0;dashed=0;fontSize=12;fontColor=#9E9E9E;align=left;verticalAlign=top;spacing=10;spacingTop=-4;whiteSpace=wrap;fillColor=#F3E5F5;" vertex="1" parent="1">
          <mxGeometry x="320" y="150" width="760" height="360" as="geometry" />
        </mxCell>
        <mxCell id="ukLfoLGlfBXaizz4c1XY-10" value="Region: us-west1&lt;br&gt;Subnet: 10.10.100.0/28" style="sketch=0;points=[[0,0,0],[0.25,0,0],[0.5,0,0],[0.75,0,0],[1,0,0],[1,0.25,0],[1,0.5,0],[1,0.75,0],[1,1,0],[0.75,1,0],[0.5,1,0],[0.25,1,0],[0,1,0],[0,0.75,0],[0,0.5,0],[0,0.25,0]];rounded=1;absoluteArcSize=1;arcSize=2;html=1;strokeColor=none;gradientColor=none;shadow=0;dashed=0;fontSize=12;fontColor=#9E9E9E;align=left;verticalAlign=top;spacing=10;spacingTop=-4;whiteSpace=wrap;fillColor=#FFF8E1;" vertex="1" parent="1">
          <mxGeometry x="530" y="170" width="530" height="320" as="geometry" />
        </mxCell>
        <mxCell id="ukLfoLGlfBXaizz4c1XY-12" value="Zone: us-west1-a" style="sketch=0;points=[[0,0,0],[0.25,0,0],[0.5,0,0],[0.75,0,0],[1,0,0],[1,0.25,0],[1,0.5,0],[1,0.75,0],[1,1,0],[0.75,1,0],[0.5,1,0],[0.25,1,0],[0,1,0],[0,0.75,0],[0,0.5,0],[0,0.25,0]];rounded=1;absoluteArcSize=1;arcSize=2;html=1;strokeColor=none;gradientColor=none;shadow=0;dashed=0;fontSize=12;fontColor=#9E9E9E;align=left;verticalAlign=top;spacing=10;spacingTop=-4;whiteSpace=wrap;fillColor=#FFEBEE;" vertex="1" parent="1">
          <mxGeometry x="580" y="220" width="450" height="150" as="geometry" />
        </mxCell>
        <mxCell id="ukLfoLGlfBXaizz4c1XY-13" value="" style="strokeColor=#dddddd;shadow=1;strokeWidth=1;rounded=1;absoluteArcSize=1;arcSize=2;" vertex="1" parent="1">
          <mxGeometry x="635" y="270" width="170" height="60" as="geometry" />
        </mxCell>
        <mxCell id="ukLfoLGlfBXaizz4c1XY-14" value="&lt;font color=&quot;#000000&quot;&gt;ocrfix-vm&lt;/font&gt;&lt;br&gt;Compute Engine" style="editableCssRules=.*;html=1;fontColor=#999999;shape=image;verticalLabelPosition=middle;verticalAlign=middle;labelPosition=right;align=left;spacingLeft=20;part=1;points=[];imageAspect=0;image=data:image/svg+xml,PHN2ZyB4bWxucz0iaHR0cDovL3d3dy53My5vcmcvMjAwMC9zdmciIHhtbG5zOnY9Imh0dHBzOi8vdmVjdGEuaW8vbmFubyIgd2lkdGg9IjIwIiBoZWlnaHQ9IjIwIiB2aWV3Qm94PSIwIDAgMjAgMjAiPiYjeGE7CTxzdHlsZSB0eXBlPSJ0ZXh0L2NzcyI+JiN4YTsJLnN0MHtmaWxsOiM0Mjg1ZjQ7fSYjeGE7CS5zdDF7ZmlsbDojNjY5ZGY2O30mI3hhOwkuc3Qye2ZpbGw6I2FlY2JmYTt9JiN4YTsJPC9zdHlsZT4mI3hhOwk8cGF0aCBjbGFzcz0ic3QyIiBkPSJNNyA3aDZ2Nkg3eiIvPiYjeGE7CTxwYXRoIGNsYXNzPSJzdDEiIGQ9Ik05IDBoMnY0SDl6TTUgMGgydjRINXptOCAwaDJ2NGgtMnoiLz4mI3hhOwk8cGF0aCBjbGFzcz0ic3QwIiBkPSJNOSAxNmgydjRIOXptLTQgMGgydjRINXptOCAwaDJ2NGgtMnptMy01VjloNHYyem0wIDR2LTJoNHYyem0wLThWNWg0djJ6Ii8+JiN4YTsJPHBhdGggY2xhc3M9InN0MSIgZD0iTTAgMTFWOWg0djJ6bTAgNHYtMmg0djJ6bTAtOFY1aDR2MnoiLz4mI3hhOwk8cGF0aCBjbGFzcz0ic3QyIiBkPSJNMyAzdjE0aDE0VjN6bTEyIDEySDVWNWgxMHoiLz4mI3hhOwk8cGF0aCBjbGFzcz0ic3QxIiBkPSJNMTAgMTBsLTMgM2g2eiIvPiYjeGE7CTxwYXRoIGNsYXNzPSJzdDAiIGQ9Ik0xMyA3bC0zIDMgMyAzeiIvPiYjeGE7PC9zdmc+;" vertex="1" parent="ukLfoLGlfBXaizz4c1XY-13">
          <mxGeometry width="30" height="30" relative="1" as="geometry">
            <mxPoint x="15" y="15" as="offset" />
          </mxGeometry>
        </mxCell>
        <mxCell id="ukLfoLGlfBXaizz4c1XY-15" value="" style="strokeColor=#dddddd;shadow=1;strokeWidth=1;rounded=1;absoluteArcSize=1;arcSize=2;" vertex="1" parent="1">
          <mxGeometry x="855" y="270" width="130" height="60" as="geometry" />
        </mxCell>
        <mxCell id="ukLfoLGlfBXaizz4c1XY-16" value="&lt;font color=&quot;#000000&quot;&gt;ocrfix-sql&lt;/font&gt;&lt;br&gt;Cloud SQL" style="editableCssRules=.*;html=1;fontColor=#999999;shape=image;verticalLabelPosition=middle;verticalAlign=middle;labelPosition=right;align=left;spacingLeft=20;part=1;points=[];imageAspect=0;image=data:image/svg+xml,PHN2ZyB4bWxucz0iaHR0cDovL3d3dy53My5vcmcvMjAwMC9zdmciIHhtbG5zOnY9Imh0dHBzOi8vdmVjdGEuaW8vbmFubyIgd2lkdGg9IjE0LjY1OTk5OTg0NzQxMjExIiBoZWlnaHQ9IjIwIiB2aWV3Qm94PSIwIDAgMTQuNjU5OTk5ODQ3NDEyMTEgMjAiPiYjeGE7CTxzdHlsZSB0eXBlPSJ0ZXh0L2NzcyI+JiN4YTsJLnN0MHtmaWxsOiM0Mjg1ZjQ7fSYjeGE7CS5zdDF7ZmlsbDojNjY5ZGY2O30mI3hhOwkuc3Qye2ZpbGw6I2FlY2JmYTt9JiN4YTsJPC9zdHlsZT4mI3hhOwk8c3R5bGU+JiN4YTsJCS5Ee2ZpbGwtcnVsZTpldmVub2RkfSYjeGE7CTwvc3R5bGU+JiN4YTsJPHBhdGggZD0iTTcuMzMgMTUuMzV2LTMuMDFMMCA4LjQ0djMuMDF6bTAgNC42NXYtMy4wMUwwIDEzLjA5djMuMDF6IiBjbGFzcz0ic3QyIEQiLz4mI3hhOwk8cGF0aCBkPSJNMTQuNjYgOC40NGwtNy4zMyAzLjl2My4wMWw3LjMzLTMuOXptMCA0LjY1bC03LjMzIDMuOVYyMGw3LjMzLTMuOXoiIGNsYXNzPSJzdDEgRCIvPiYjeGE7CTxwYXRoIGQ9Ik03LjMzIDB2My4wMWw3LjMzIDMuOVYzLjl6IiBjbGFzcz0ic3QwIEQiLz4mI3hhOwk8cGF0aCBkPSJNMCA2LjkxbDcuMzMtMy45VjBMMCAzLjl6IiBjbGFzcz0iRCBzdDEiLz4mI3hhOwk8cGF0aCBkPSJNNy4zMyAxMC43OVY3Ljc3TDAgMy44N3YzLjAyeiIgY2xhc3M9IkQgc3QyIi8+JiN4YTsJPHBhdGggZD0iTTE0LjY2IDMuODdsLTcuMzMgMy45djMuMDJsNy4zMy0zLjl6IiBjbGFzcz0iRCBzdDEiLz4mI3hhOzwvc3ZnPg==;" vertex="1" parent="ukLfoLGlfBXaizz4c1XY-15">
          <mxGeometry width="22" height="30" relative="1" as="geometry">
            <mxPoint x="19" y="15" as="offset" />
          </mxGeometry>
        </mxCell>
        <mxCell id="ukLfoLGlfBXaizz4c1XY-5" value="" style="strokeColor=#dddddd;shadow=1;strokeWidth=1;rounded=1;absoluteArcSize=1;arcSize=2;" vertex="1" parent="1">
          <mxGeometry x="330" y="180" width="180" height="60" as="geometry" />
        </mxCell>
        <mxCell id="ukLfoLGlfBXaizz4c1XY-6" value="&lt;font color=&quot;#000000&quot;&gt;ocrfix-vpc&lt;/font&gt;&lt;br&gt;Virtual Private Cloud" style="editableCssRules=.*;html=1;fontColor=#999999;shape=image;verticalLabelPosition=middle;verticalAlign=middle;labelPosition=right;align=left;spacingLeft=20;part=1;points=[];imageAspect=0;image=data:image/svg+xml,PHN2ZyB4bWxucz0iaHR0cDovL3d3dy53My5vcmcvMjAwMC9zdmciIHhtbG5zOnY9Imh0dHBzOi8vdmVjdGEuaW8vbmFubyIgd2lkdGg9IjIwIiBoZWlnaHQ9IjIwIiB2aWV3Qm94PSIwIDAgMjAgMjAiPiYjeGE7CTxzdHlsZSB0eXBlPSJ0ZXh0L2NzcyI+JiN4YTsJLnN0MHtmaWxsOiM0Mjg1ZjQ7fSYjeGE7CS5zdDF7ZmlsbDojNjY5ZGY2O30mI3hhOwkuc3Qye2ZpbGw6I2FlY2JmYTt9JiN4YTsJPC9zdHlsZT4mI3hhOwk8cGF0aCBjbGFzcz0ic3QyIiBkPSJNMTQgMGg2djZoLTZ6Ii8+JiN4YTsJPHBhdGggY2xhc3M9InN0MSIgZD0iTTE3IDBoM3Y2aC0zeiIvPiYjeGE7CTxwYXRoIGNsYXNzPSJzdDIiIGQ9Ik0xNCAxNGg2djZoLTZ6Ii8+JiN4YTsJPHBhdGggY2xhc3M9InN0MSIgZD0iTTE3IDE0aDN2NmgtM3oiLz4mI3hhOwk8cGF0aCBjbGFzcz0ic3QyIiBkPSJNMCAwaDZ2NkgweiIvPiYjeGE7CTxwYXRoIGNsYXNzPSJzdDEiIGQ9Ik0zIDBoM3Y2SDN6Ii8+JiN4YTsJPHBhdGggY2xhc3M9InN0MiIgZD0iTTAgMTRoNnY2SDB6Ii8+JiN4YTsJPGcgY2xhc3M9InN0MSI+JiN4YTsJCTxwYXRoIGQ9Ik0zIDE0aDN2Nkgzek02IDJoOHYySDZ6Ii8+JiN4YTsJCTxwYXRoIGQ9Ik02IDE2aDh2Mkg2ek0xNiA2aDJ2OGgtMnpNMiA2aDJ2OEgyeiIvPiYjeGE7CTwvZz4mI3hhOwk8cGF0aCBjbGFzcz0ic3QwIiBkPSJNMiA2aDJ2Mkgyem0xNCAwaDJ2MmgtMnpNNiAyaDJ2Mkg2em0wIDE0aDJ2Mkg2eiIvPiYjeGE7PC9zdmc+;" vertex="1" parent="ukLfoLGlfBXaizz4c1XY-5">
          <mxGeometry width="30" height="30" relative="1" as="geometry">
            <mxPoint x="15" y="15" as="offset" />
          </mxGeometry>
        </mxCell>
        <mxCell id="ukLfoLGlfBXaizz4c1XY-20" value="" style="strokeColor=#dddddd;shadow=1;strokeWidth=1;rounded=1;absoluteArcSize=1;arcSize=2;" vertex="1" parent="1">
          <mxGeometry x="720" y="400" width="130" height="60" as="geometry" />
        </mxCell>
        <mxCell id="ukLfoLGlfBXaizz4c1XY-21" value="&lt;font color=&quot;#000000&quot;&gt;ocrfix-ml&lt;/font&gt;&lt;br&gt;Cloud Run" style="editableCssRules=.*;html=1;fontColor=#999999;shape=image;verticalLabelPosition=middle;verticalAlign=middle;labelPosition=right;align=left;spacingLeft=20;part=1;points=[];imageAspect=0;image=data:image/svg+xml,PHN2ZyB4bWxucz0iaHR0cDovL3d3dy53My5vcmcvMjAwMC9zdmciIHhtbG5zOnY9Imh0dHBzOi8vdmVjdGEuaW8vbmFubyIgd2lkdGg9IjM2NS40NjQ5OTY3NzA0MjQ5MyIgaGVpZ2h0PSIzNzkuMjIyOTk0NDYzNTc3OTUiIHZpZXdCb3g9IjAgMCA5Ni42OTU5OTkxNDU1MDc4MSAxMDAuMzM1OTk4NTM1MTU2MjUiPiYjeGE7PHN0eWxlIHR5cGU9InRleHQvY3NzIj4mI3hhOwkuc3Qwe2ZpbGw6IzQyODVmNDt9JiN4YTsJLnN0MXtmaWxsOiNhZWNiZmE7fSYjeGE7PC9zdHlsZT4mI3hhOwk8cGF0aCBjbGFzcz0ic3QwIiBkPSJNMjkuNzk0IDEwMC4zMzZMNDYuOTIgNTAuMTY4aDQ5Ljc3NnpNMCA5OS42NzFsMTIuOTc2LTQ5LjUwMkgyOS4yMkwxNi44OTcgOTIuMDU0eiIvPiYjeGE7CTxwYXRoIGNsYXNzPSJzdDEiIGQ9Ik0yOS43OTQgMEw0Ni45MiA1MC4xNjhoNDkuNzc2ek0wIC42NjZsMTIuOTc2IDQ5LjUwMkgyOS4yMkwxNi44OTcgOC4yODN6Ii8+JiN4YTs8L3N2Zz4=;" vertex="1" parent="ukLfoLGlfBXaizz4c1XY-20">
          <mxGeometry width="30" height="30" relative="1" as="geometry">
            <mxPoint x="15" y="15" as="offset" />
          </mxGeometry>
        </mxCell>
        <mxCell id="ukLfoLGlfBXaizz4c1XY-17" value="" style="strokeColor=#dddddd;shadow=1;strokeWidth=1;rounded=1;absoluteArcSize=1;arcSize=2;" vertex="1" parent="1">
          <mxGeometry x="880" y="400" width="150" height="60" as="geometry" />
        </mxCell>
        <mxCell id="ukLfoLGlfBXaizz4c1XY-18" value="&lt;font color=&quot;#000000&quot;&gt;ocrfix-bucket&lt;/font&gt;&lt;br&gt;Cloud Storage" style="editableCssRules=.*;html=1;fontColor=#999999;shape=image;verticalLabelPosition=middle;verticalAlign=middle;labelPosition=right;align=left;spacingLeft=20;part=1;points=[];imageAspect=0;image=data:image/svg+xml,PHN2ZyB4bWxucz0iaHR0cDovL3d3dy53My5vcmcvMjAwMC9zdmciIHhtbG5zOnY9Imh0dHBzOi8vdmVjdGEuaW8vbmFubyIgd2lkdGg9IjIwIiBoZWlnaHQ9IjE2IiB2aWV3Qm94PSIwIDAgMjAgMTYiPiYjeGE7CTxzdHlsZSB0eXBlPSJ0ZXh0L2NzcyI+JiN4YTsJLnN0MHtmaWxsOiM0Mjg1ZjQ7fSYjeGE7CS5zdDF7ZmlsbDojNjY5ZGY2O30mI3hhOwkuc3Qye2ZpbGw6I2FlY2JmYTt9JiN4YTsJLnN0M3tmaWxsOiNmZmY7fSYjeGE7CTwvc3R5bGU+JiN4YTsJPHBhdGggY2xhc3M9InN0MiIgZD0iTTAgMGgyMHY3SDB6Ii8+JiN4YTsJPHBhdGggY2xhc3M9InN0MSIgZD0iTTE4IDBoMnY3aC0yeiIvPiYjeGE7CTxwYXRoIGNsYXNzPSJzdDAiIGQ9Ik0xOCA3bDItN2gtMnoiLz4mI3hhOwk8cGF0aCBjbGFzcz0ic3QxIiBkPSJNMCAwaDJ2N0gweiIvPiYjeGE7CTxnIGNsYXNzPSJzdDMiPiYjeGE7CQk8cGF0aCBkPSJNNCAzaDZ2MUg0eiIvPiYjeGE7CQk8cmVjdCB4PSIxMyIgeT0iMiIgd2lkdGg9IjMiIGhlaWdodD0iMyIgcng9IjEuNSIvPiYjeGE7CTwvZz4mI3hhOwk8cGF0aCBjbGFzcz0ic3QyIiBkPSJNMCA5aDIwdjdIMHoiLz4mI3hhOwk8cGF0aCBjbGFzcz0ic3QxIiBkPSJNMTggOWgydjdoLTJ6Ii8+JiN4YTsJPHBhdGggY2xhc3M9InN0MCIgZD0iTTE4IDE2bDItN2gtMnoiLz4mI3hhOwk8cGF0aCBjbGFzcz0ic3QxIiBkPSJNMCA5aDJ2N0gweiIvPiYjeGE7CTxnIGNsYXNzPSJzdDMiPiYjeGE7CQk8cGF0aCBkPSJNNCAxMmg2djFINHoiLz4mI3hhOwkJPHJlY3QgeD0iMTMiIHk9IjExIiB3aWR0aD0iMyIgaGVpZ2h0PSIzIiByeD0iMS41Ii8+JiN4YTsJPC9nPiYjeGE7PC9zdmc+;" vertex="1" parent="ukLfoLGlfBXaizz4c1XY-17">
          <mxGeometry width="30" height="24" relative="1" as="geometry">
            <mxPoint x="15" y="18" as="offset" />
          </mxGeometry>
        </mxCell>
        <mxCell id="ukLfoLGlfBXaizz4c1XY-27" value="" style="strokeColor=#dddddd;shadow=1;strokeWidth=1;rounded=1;absoluteArcSize=1;arcSize=2;" vertex="1" parent="1">
          <mxGeometry x="570" y="400" width="110" height="60" as="geometry" />
        </mxCell>
        <mxCell id="ukLfoLGlfBXaizz4c1XY-28" value="Cloud&#xa;Build" style="editableCssRules=.*;html=1;fontColor=#999999;shape=image;verticalLabelPosition=middle;verticalAlign=middle;labelPosition=right;align=left;spacingLeft=20;part=1;points=[];imageAspect=0;image=data:image/svg+xml,PHN2ZyB4bWxucz0iaHR0cDovL3d3dy53My5vcmcvMjAwMC9zdmciIHhtbG5zOnY9Imh0dHBzOi8vdmVjdGEuaW8vbmFubyIgd2lkdGg9IjE3LjMyOTk5OTkyMzcwNjA1NSIgaGVpZ2h0PSIxOS42MTAwMDA2MTAzNTE1NjIiIHZpZXdCb3g9IjAgMCAxNy4zMjk5OTk5MjM3MDYwNTUgMTkuNjEwMDAwNjEwMzUxNTYyIj4mI3hhOwk8c3R5bGUgdHlwZT0idGV4dC9jc3MiPiYjeGE7CS5zdDB7ZmlsbDojNDI4NWY0O30mI3hhOwkuc3Qxe2ZpbGw6IzY2OWRmNjt9JiN4YTsJLnN0MntmaWxsOiNhZWNiZmE7fSYjeGE7CTwvc3R5bGU+JiN4YTsJPHBhdGggY2xhc3M9InN0MCIgZD0iTTEyLjE4IDcuOThMMTEgNy4yOWwtMy41MiA2LjEgMS4xOC42OCAzLjUyLTIuMDN6IiBmaWxsPSIjNDI4NWY0Ii8+JiN4YTsJPHBhdGggY2xhc3M9InN0MSIgZD0iTTYuMzIgMTIuNzJsMy41My02LjA5LTEuMTktLjY5LTMuNTIgMi4wNHY0LjA2eiIgZmlsbD0iIzY2OWRmNiIvPiYjeGE7CTxwYXRoIGNsYXNzPSJzdDIiIGQ9Ik0zLjc1IDcuOThMMCA1LjgxdjkuMmw3Ljk3IDQuNnYtNC4zM2wtNC4yMi0yLjQ0em05LjEzLTEuMmwzLjc2LTIuMTdMOC42NiAwIC42OCA0LjYxbDMuNzYgMi4xNyA0LjIyLTIuNDR6TTkuMzUgMTkuNjFsNy45OC00LjZ2LTkuMmwtMy43NiAyLjE3djQuODZsLTQuMjIgMi40NHoiIGZpbGw9IiNhZWNiZmEiLz4mI3hhOzwvc3ZnPg==;" vertex="1" parent="ukLfoLGlfBXaizz4c1XY-27">
          <mxGeometry width="26" height="30" relative="1" as="geometry">
            <mxPoint x="17" y="15" as="offset" />
          </mxGeometry>
        </mxCell>
        <mxCell id="ukLfoLGlfBXaizz4c1XY-29" value="" style="edgeStyle=orthogonalEdgeStyle;fontSize=12;html=1;endArrow=blockThin;endFill=1;rounded=0;strokeWidth=2;endSize=4;startSize=4;dashed=0;strokeColor=#4284F3;entryX=0;entryY=0.5;entryDx=0;entryDy=0;exitX=1;exitY=0.5;exitDx=0;exitDy=0;" edge="1" parent="1" source="ukLfoLGlfBXaizz4c1XY-13" target="ukLfoLGlfBXaizz4c1XY-15">
          <mxGeometry width="100" relative="1" as="geometry">
            <mxPoint x="810" y="300" as="sourcePoint" />
            <mxPoint x="855" y="299.65999999999997" as="targetPoint" />
          </mxGeometry>
        </mxCell>
        <mxCell id="ukLfoLGlfBXaizz4c1XY-30" value="" style="edgeStyle=orthogonalEdgeStyle;fontSize=12;html=1;endArrow=blockThin;endFill=1;rounded=0;strokeWidth=2;endSize=4;startSize=4;dashed=0;strokeColor=#4284F3;exitX=0.75;exitY=1;exitDx=0;exitDy=0;" edge="1" parent="1" source="ukLfoLGlfBXaizz4c1XY-13" target="ukLfoLGlfBXaizz4c1XY-17">
          <mxGeometry width="100" relative="1" as="geometry">
            <mxPoint x="815" y="310" as="sourcePoint" />
            <mxPoint x="865" y="310" as="targetPoint" />
          </mxGeometry>
        </mxCell>
        <mxCell id="ukLfoLGlfBXaizz4c1XY-31" value="" style="edgeStyle=orthogonalEdgeStyle;fontSize=12;html=1;endArrow=blockThin;endFill=1;rounded=0;strokeWidth=2;endSize=4;startSize=4;dashed=0;strokeColor=#4284F3;exitX=0.5;exitY=1;exitDx=0;exitDy=0;" edge="1" parent="1" source="ukLfoLGlfBXaizz4c1XY-13" target="ukLfoLGlfBXaizz4c1XY-20">
          <mxGeometry width="100" relative="1" as="geometry">
            <mxPoint x="773" y="340" as="sourcePoint" />
            <mxPoint x="965" y="410" as="targetPoint" />
            <Array as="points">
              <mxPoint x="720" y="380" />
              <mxPoint x="785" y="380" />
            </Array>
          </mxGeometry>
        </mxCell>
        <mxCell id="ukLfoLGlfBXaizz4c1XY-32" value="" style="edgeStyle=orthogonalEdgeStyle;fontSize=12;html=1;endArrow=blockThin;endFill=1;rounded=0;strokeWidth=2;endSize=4;startSize=4;dashed=0;strokeColor=#4284F3;entryX=0;entryY=0.5;entryDx=0;entryDy=0;exitX=1;exitY=0.5;exitDx=0;exitDy=0;" edge="1" parent="1" source="ukLfoLGlfBXaizz4c1XY-27" target="ukLfoLGlfBXaizz4c1XY-20">
          <mxGeometry width="100" relative="1" as="geometry">
            <mxPoint x="815" y="310" as="sourcePoint" />
            <mxPoint x="865" y="310" as="targetPoint" />
          </mxGeometry>
        </mxCell>
        <mxCell id="ukLfoLGlfBXaizz4c1XY-35" value="" style="edgeStyle=orthogonalEdgeStyle;fontSize=12;html=1;endArrow=blockThin;endFill=1;rounded=0;strokeWidth=2;endSize=4;startSize=4;dashed=0;strokeColor=#9E9E9E;entryX=0.5;entryY=1;entryDx=0;entryDy=0;" edge="1" parent="1" source="ukLfoLGlfBXaizz4c1XY-34" target="ukLfoLGlfBXaizz4c1XY-27">
          <mxGeometry width="100" relative="1" as="geometry">
            <mxPoint x="610" y="450" as="sourcePoint" />
            <mxPoint x="710" y="450" as="targetPoint" />
          </mxGeometry>
        </mxCell>
        <mxCell id="ukLfoLGlfBXaizz4c1XY-36" value="" style="strokeColor=#dddddd;shadow=1;strokeWidth=1;rounded=1;absoluteArcSize=1;arcSize=2;" vertex="1" parent="1">
          <mxGeometry x="345" y="270" width="150" height="60" as="geometry" />
        </mxCell>
        <mxCell id="ukLfoLGlfBXaizz4c1XY-37" value="Cloud&#xa;Firewall Rules" style="editableCssRules=.*;html=1;fontColor=#999999;shape=image;verticalLabelPosition=middle;verticalAlign=middle;labelPosition=right;align=left;spacingLeft=20;part=1;points=[];imageAspect=0;image=data:image/svg+xml,PHN2ZyB4bWxucz0iaHR0cDovL3d3dy53My5vcmcvMjAwMC9zdmciIHhtbG5zOnY9Imh0dHBzOi8vdmVjdGEuaW8vbmFubyIgd2lkdGg9IjIwIiBoZWlnaHQ9IjIwIiBmaWxsPSIjNDI4NWY0IiB2aWV3Qm94PSIwIDAgMjAgMjAiPiYjeGE7CTxzdHlsZSB0eXBlPSJ0ZXh0L2NzcyI+JiN4YTsJLnN0MHtmaWxsOiM0Mjg1ZjQ7fSYjeGE7CTwvc3R5bGU+JiN4YTsJPHBhdGggY2xhc3M9InN0MCIgZD0iTTAgMGg4Ljg5djIuMjJIMHptMCAxNy43OGg4Ljg5VjIwSDB6bTAtOC44OWg4Ljg5djIuMjJIMHpNMTEuMTEgMEgyMHYyLjIyaC04Ljg5em0wIDE3Ljc4SDIwVjIwaC04Ljg5em0wLTguODlIMjB2Mi4yMmgtOC44OXpNNS41NSA0LjQ0aDguODl2Mi4yMkg1LjU1em0wIDguODloOC44OXYyLjIySDUuNTV6TTAgNC40NGgzLjMzdjIuMjJIMHptMCA4Ljg5aDMuMzN2Mi4yMkgwem0xNi42Ny04Ljg5SDIwdjIuMjJoLTMuMzN6bTAgOC44OUgyMHYyLjIyaC0zLjMzeiIvPiYjeGE7PC9zdmc+;" vertex="1" parent="ukLfoLGlfBXaizz4c1XY-36">
          <mxGeometry width="30" height="30" relative="1" as="geometry">
            <mxPoint x="15" y="15" as="offset" />
          </mxGeometry>
        </mxCell>
        <mxCell id="ukLfoLGlfBXaizz4c1XY-38" value="" style="edgeStyle=orthogonalEdgeStyle;fontSize=12;html=1;endArrow=blockThin;endFill=1;rounded=0;strokeWidth=2;endSize=4;startSize=4;dashed=0;strokeColor=#4284F3;exitX=1;exitY=0.5;exitDx=0;exitDy=0;entryX=0;entryY=0.5;entryDx=0;entryDy=0;" edge="1" parent="1" source="ukLfoLGlfBXaizz4c1XY-36" target="ukLfoLGlfBXaizz4c1XY-13">
          <mxGeometry width="100" relative="1" as="geometry">
            <mxPoint x="815" y="310" as="sourcePoint" />
            <mxPoint x="620" y="300" as="targetPoint" />
          </mxGeometry>
        </mxCell>
        <mxCell id="ukLfoLGlfBXaizz4c1XY-34" value="" style="dashed=0;outlineConnect=0;html=1;align=center;labelPosition=center;verticalLabelPosition=bottom;verticalAlign=top;shape=mxgraph.weblogos.github" vertex="1" parent="1">
          <mxGeometry x="600" y="550" width="50" height="50" as="geometry" />
        </mxCell>
        <mxCell id="ukLfoLGlfBXaizz4c1XY-39" value="" style="sketch=0;html=1;aspect=fixed;strokeColor=none;shadow=0;fillColor=#3B8DF1;verticalAlign=top;labelPosition=center;verticalLabelPosition=bottom;shape=mxgraph.gcp2.globe_world" vertex="1" parent="1">
          <mxGeometry x="209" y="271.25" width="60.53" height="57.5" as="geometry" />
        </mxCell>
        <mxCell id="ukLfoLGlfBXaizz4c1XY-40" value="" style="edgeStyle=orthogonalEdgeStyle;fontSize=12;html=1;endArrow=blockThin;endFill=1;rounded=0;strokeWidth=2;endSize=4;startSize=4;dashed=0;strokeColor=#4284F3;entryX=0;entryY=0.5;entryDx=0;entryDy=0;" edge="1" parent="1" target="ukLfoLGlfBXaizz4c1XY-36">
          <mxGeometry width="100" relative="1" as="geometry">
            <mxPoint x="270" y="300" as="sourcePoint" />
            <mxPoint x="645" y="310" as="targetPoint" />
          </mxGeometry>
        </mxCell>
        <mxCell id="ukLfoLGlfBXaizz4c1XY-41" value="" style="sketch=0;html=1;aspect=fixed;strokeColor=none;shadow=0;fillColor=#3B8DF1;verticalAlign=top;labelPosition=center;verticalLabelPosition=bottom;shape=mxgraph.gcp2.phone_android" vertex="1" parent="1">
          <mxGeometry x="70" y="250" width="56" height="100" as="geometry" />
        </mxCell>
        <mxCell id="ukLfoLGlfBXaizz4c1XY-42" value="" style="edgeStyle=orthogonalEdgeStyle;fontSize=12;html=1;endArrow=blockThin;endFill=1;rounded=0;strokeWidth=2;endSize=4;startSize=4;dashed=0;strokeColor=#4284F3;entryX=-0.01;entryY=0.524;entryDx=0;entryDy=0;exitX=0.968;exitY=0.506;exitDx=0;exitDy=0;exitPerimeter=0;entryPerimeter=0;" edge="1" parent="1" source="ukLfoLGlfBXaizz4c1XY-41" target="ukLfoLGlfBXaizz4c1XY-39">
          <mxGeometry width="100" relative="1" as="geometry">
            <mxPoint x="130" y="299.76" as="sourcePoint" />
            <mxPoint x="205" y="299.76" as="targetPoint" />
          </mxGeometry>
        </mxCell>
      </root>
    </mxGraphModel>
  </diagram>
</mxfile>
